<svg width="793" height="476" viewBox="0 0 793 476" fill="none" xmlns="http://www.w3.org/2000/svg">
<path fill-rule="evenodd" clip-rule="evenodd" d="M775.783 3.69412C782.229 35.7121 760.479 53.8321 759.659 81.5061C759.274 94.4961 766.397 111.914 770.564 127.881C782.012 171.723 789.971 225.565 792.317 274.358C794.008 309.499 787.169 346.115 781.557 378.422C775.61 412.664 769.295 444.654 743.916 457.127C728.729 464.595 641.19 473.599 635.205 447.765C629.429 422.842 665.042 397.653 674.15 376.774C686.259 349.025 685.746 293.454 672.825 266.208C656.752 232.323 601.585 198.244 566.148 240.02C563.917 277.575 565.273 307.02 567.882 336.779C570.486 366.492 578.281 395.675 575.982 426.053C573.165 463.255 533.442 473.44 496.445 468.21C425.258 458.15 460.977 370.555 467.431 307.703C472.129 261.952 476.415 191.35 451.221 181.348C431.756 173.62 397.51 184.84 377.74 174.564C368.128 169.568 354.64 152.912 358.815 135.498C362.717 119.22 397.645 117.439 410.553 103.388C425.121 87.5291 430.032 67.2551 450.306 56.9801C458.274 52.9401 472.187 50.9461 478.139 50.1301C488.727 38.3041 487.643 18.7151 505.21 17.1611C538.971 14.1761 525.378 68.0521 543.041 87.3611C575.335 93.2381 602.787 85.1661 629.159 82.2401C656.366 79.2191 691.039 81.0201 709.41 67.7331C730.104 52.7691 727.672 -15.2809 775.783 3.69412Z" fill="#32151E"/>
<path fill-rule="evenodd" clip-rule="evenodd" d="M230.842 262.311C245.107 259.049 254.765 246.374 266.89 237.284C290.394 219.666 323.321 202.114 369.117 206.545C385.592 208.139 407.004 213.447 414.583 226.314C423.801 241.965 416.653 275.204 409.515 293.707C394.004 333.923 369.653 360.69 346.836 388.558C318.634 423 297.554 442.557 249.516 460.889C210.486 475.784 134.12 487.109 100.791 454.945C81.8223 436.638 73.8373 407.1 81.9133 366.885C83.9193 356.89 85.4663 351.124 88.5583 341.199C92.1603 329.635 95.9493 319.68 98.8833 312.253C109.563 285.222 142.49 257.571 137.3 207.347C133.567 171.215 91.4613 170.464 51.0613 164.878C38.2283 163.105 0.895299 159.418 0.948299 146.506C0.993299 135.337 31.7763 132.659 44.4393 129.374C61.5073 124.946 79.3013 121.109 87.8833 113.777C110.039 94.8482 108.316 58.3302 144.824 57.1332C173.385 56.1962 205.564 81.0382 215.726 99.1472C237.886 138.636 233.952 199.474 230.842 262.311Z" fill="#32151E"/>
<path d="M372.865 133.496C371.077 137.026 367.378 137.522 362.584 136.585C359.389 136.585 357.165 136.008 358.3 130.193C358.981 126.703 363.634 126 366.83 126C370.025 126 373.759 127.319 372.865 133.496Z" fill="#B18484"/>
<path d="M452 107.5C452 109.985 447.985 109 445.5 109C443.015 109 441 106.986 441 104.5C441 102.015 443.015 100 445.5 100C447.985 100 452 105.015 452 107.5Z" fill="#58755E"/>
<ellipse cx="116" cy="124.5" rx="6" ry="4.5" transform="rotate(-15.5947 116 124.5)" fill="#B18484"/>
<path d="M362.354 137.547C359.854 138.047 360.787 140.547 358.854 140.547C356.921 140.547 358.295 135.204 358.295 133.547C358.295 131.891 362.42 134.547 364.353 134.547C366.286 134.547 364.354 136.047 362.354 137.547Z" fill="#B18484"/>
</svg>
